<svg width="84" height="84" viewBox="0 0 84 84" fill="none" xmlns="http://www.w3.org/2000/svg">
<g id="Weather / Night / Cold / Clear / 1 ">
<g clip-path="url(#clip0_2_795)">
<rect width="84" height="84" rx="42" fill="url(#paint0_linear_2_795)"/>
<circle id="Oval 1" cx="41" cy="29" r="11" fill="#FB6849"/>
<path id="Path 55" fill-rule="evenodd" clip-rule="evenodd" d="M39.3623 31L100.96 64.919V103.97H-17L-16.4425 66.3204L39.3623 31Z" fill="#30243B"/>
<path id="Path 55_2" fill-rule="evenodd" clip-rule="evenodd" d="M38.5147 33.712L41.9801 34.56L41.7128 32.3099L60.7909 42.8541H57.5546L56.1868 43.8614L48.4928 39.5172L54.4067 45.1723L52.8629 46.3093L53.814 48.8949L46.9486 51.9961L39.9737 45.0853L44.4612 45.9033L41.6196 41.4993L48.4928 44.6949L42.6774 39.5172L45.2955 40.3998L38.5147 33.712Z" fill="url(#paint1_linear_2_795)"/>
<path id="Path 55_3" fill-rule="evenodd" clip-rule="evenodd" d="M61.5775 45.0485L63.6565 44.6949L84.3662 56.1971L81.4673 59.2157L78.2722 58.1336L80.2867 60.4507L75.3045 65.6455L68.0944 62.4851L72.2069 69.8868L59.2336 60.7034L58.8885 54.8672L55.6357 50.4273L58.672 51.2062L57.6339 46.986L62.2406 46.4971L61.5775 45.0485Z" fill="url(#paint2_linear_2_795)"/>
<path id="Path 55_4" fill-rule="evenodd" clip-rule="evenodd" d="M34.2625 51.6532L40.787 55.125V52.7868L54.2597 64.6324L52.1275 59.8933L59.9987 62.4851L67.7143 71.7714L61.7402 72.6204L49.6528 66.8715L55.753 73.4713L48.5514 74.4947L34.2625 61.6635V57.5843L38.5147 59.8933L34.2625 51.6532Z" fill="url(#paint3_linear_2_795)"/>
<path id="Path 55_5" fill-rule="evenodd" clip-rule="evenodd" d="M12.9406 52.7663L12.3448 49.616L19.0718 51.9961L25.7988 57.4762L19.0825 56.7716L12.9406 52.7663Z" fill="url(#paint4_linear_2_795)"/>
<path id="Path 55_6" fill-rule="evenodd" clip-rule="evenodd" d="M16.1502 61.515L13.9852 57.9592L19.4325 59.2376L18.5564 60.6795L16.1502 61.515Z" fill="url(#paint5_linear_2_795)"/>
<path id="Path 55_7" fill-rule="evenodd" clip-rule="evenodd" d="M18.7409 47.156H20.8748L19.8896 45.0853L22.7733 46.3468L25.7988 48.8215L21.9084 49.9718L18.7409 47.156Z" fill="url(#paint6_linear_2_795)"/>
</g>
</g>
<defs>
<linearGradient id="paint0_linear_2_795" x1="-11.4399" y1="0" x2="-11.4399" y2="106.88" gradientUnits="userSpaceOnUse">
<stop stop-color="#231440"/>
<stop offset="1" stop-color="#685AAB"/>
</linearGradient>
<linearGradient id="paint1_linear_2_795" x1="38.5147" y1="32.3099" x2="38.5147" y2="51.9961" gradientUnits="userSpaceOnUse">
<stop stop-color="#B6A5C4"/>
<stop offset="1" stop-color="#31253B"/>
</linearGradient>
<linearGradient id="paint2_linear_2_795" x1="55.6357" y1="44.6949" x2="55.6357" y2="69.8868" gradientUnits="userSpaceOnUse">
<stop stop-color="#B6A5C4"/>
<stop offset="1" stop-color="#31253B"/>
</linearGradient>
<linearGradient id="paint3_linear_2_795" x1="34.2625" y1="51.6532" x2="34.2625" y2="74.4947" gradientUnits="userSpaceOnUse">
<stop stop-color="#B6A5C4"/>
<stop offset="1" stop-color="#31253B"/>
</linearGradient>
<linearGradient id="paint4_linear_2_795" x1="12.3448" y1="49.616" x2="12.3448" y2="57.4762" gradientUnits="userSpaceOnUse">
<stop stop-color="#B6A5C4"/>
<stop offset="1" stop-color="#31253B"/>
</linearGradient>
<linearGradient id="paint5_linear_2_795" x1="13.9852" y1="57.9592" x2="13.9852" y2="61.515" gradientUnits="userSpaceOnUse">
<stop stop-color="#B6A5C4"/>
<stop offset="1" stop-color="#31253B"/>
</linearGradient>
<linearGradient id="paint6_linear_2_795" x1="18.7409" y1="45.0853" x2="18.7409" y2="49.9718" gradientUnits="userSpaceOnUse">
<stop stop-color="#B6A5C4"/>
<stop offset="1" stop-color="#31253B"/>
</linearGradient>
<clipPath id="clip0_2_795">
<rect width="84" height="84" rx="42" fill="white"/>
</clipPath>
</defs>
</svg>
